<svg width="14" height="8" viewBox="0 0 14 8" fill="none" xmlns="http://www.w3.org/2000/svg">
<path id="Vector" d="M13.023 1.38852L7.39804 7.01352C7.3458 7.06581 7.28376 7.1073 7.21547 7.13561C7.14719 7.16392 7.07399 7.17849 7.00007 7.17849C6.92615 7.17849 6.85295 7.16392 6.78466 7.13561C6.71638 7.1073 6.65434 7.06581 6.6021 7.01352L0.9771 1.38852C0.871552 1.28297 0.812256 1.13981 0.812256 0.990547C0.812256 0.84128 0.871552 0.698126 0.9771 0.592578C1.08265 0.48703 1.2258 0.427734 1.37507 0.427734C1.52434 0.427734 1.66749 0.48703 1.77304 0.592578L7.00007 5.82031L12.2271 0.592578C12.2794 0.540316 12.3414 0.49886 12.4097 0.470576C12.478 0.442292 12.5512 0.427734 12.6251 0.427734C12.699 0.427734 12.7722 0.442292 12.8404 0.470576C12.9087 0.49886 12.9708 0.540316 13.023 0.592578C13.0753 0.64484 13.1168 0.706884 13.145 0.775168C13.1733 0.843451 13.1879 0.916637 13.1879 0.990547C13.1879 1.06446 13.1733 1.13764 13.145 1.20593C13.1168 1.27421 13.0753 1.33625 13.023 1.38852Z" fill="white"/>
</svg>
